<svg width="1600" height="900" viewBox="0 0 1600 900" fill="none" xmlns="http://www.w3.org/2000/svg">
  <defs>
    <linearGradient id="bg" x1="0" y1="0" x2="1" y2="1">
      <stop offset="0%" stop-color="#243246"/>
      <stop offset="100%" stop-color="#1B2537"/>
    </linearGradient>
    <linearGradient id="beam" x1="0" y1="0" x2="1" y2="0">
      <stop offset="0%" stop-color="#7DD3FC" stop-opacity="0.08"/>
      <stop offset="50%" stop-color="#E2E8F0" stop-opacity="0.18"/>
      <stop offset="100%" stop-color="#7DD3FC" stop-opacity="0.06"/>
    </linearGradient>
    <filter id="blur" x="-20%" y="-20%" width="140%" height="140%">
      <feGaussianBlur stdDeviation="22"/>
    </filter>
  </defs>
  <rect width="1600" height="900" fill="url(#bg)"/>
  <g opacity="0.22">
    <rect x="220" y="130" width="1160" height="510" rx="32" fill="#223147"/>
    <rect x="290" y="210" width="360" height="300" rx="18" fill="#1B293C"/>
    <rect x="720" y="190" width="520" height="340" rx="24" fill="#192536"/>
    <rect x="970" y="150" width="70" height="450" rx="30" fill="#32445D" fill-opacity="0.45"/>
    <rect x="830" y="255" width="240" height="26" rx="13" fill="#30435E" fill-opacity="0.45"/>
    <rect x="830" y="310" width="320" height="24" rx="12" fill="#2C3D56" fill-opacity="0.4"/>
    <rect x="760" y="460" width="400" height="38" rx="19" fill="#314560" fill-opacity="0.3"/>
  </g>
  <g opacity="0.18">
    <circle cx="1180" cy="220" r="120" fill="#E2E8F0" filter="url(#blur)"/>
    <circle cx="1340" cy="280" r="80" fill="#E2E8F0" filter="url(#blur)"/>
  </g>
  <g opacity="0.18" stroke="#D8E1EC" stroke-opacity="0.18">
    <path d="M0 170H1600"/>
    <path d="M0 430H1600"/>
    <path d="M0 690H1600"/>
    <path d="M400 0V900"/>
    <path d="M800 0V900"/>
    <path d="M1200 0V900"/>
  </g>
  <rect x="610" y="0" width="180" height="900" fill="url(#beam)"/>
</svg>
