<svg width="1600" height="1100" viewBox="0 0 1600 1100" fill="none" xmlns="http://www.w3.org/2000/svg">
  <defs>
    <linearGradient id="bg" x1="0" y1="0" x2="1" y2="1">
      <stop offset="0%" stop-color="#030712"/>
      <stop offset="55%" stop-color="#0A1225"/>
      <stop offset="100%" stop-color="#131B2D"/>
    </linearGradient>
    <radialGradient id="smoke" cx="0" cy="0" r="1" gradientUnits="userSpaceOnUse" gradientTransform="translate(910 450) rotate(112) scale(430 320)">
      <stop offset="0%" stop-color="#94A3B8" stop-opacity="0.22"/>
      <stop offset="100%" stop-color="#94A3B8" stop-opacity="0"/>
    </radialGradient>
    <linearGradient id="steel" x1="0" y1="0" x2="1" y2="1">
      <stop offset="0%" stop-color="#E2E8F0"/>
      <stop offset="28%" stop-color="#7C8798"/>
      <stop offset="55%" stop-color="#0F172A"/>
      <stop offset="78%" stop-color="#D6D3D1"/>
      <stop offset="100%" stop-color="#334155"/>
    </linearGradient>
    <linearGradient id="lathe" x1="0" y1="0" x2="1" y2="1">
      <stop offset="0%" stop-color="#475569"/>
      <stop offset="50%" stop-color="#0F172A"/>
      <stop offset="100%" stop-color="#64748B"/>
    </linearGradient>
    <radialGradient id="sparkGlow" cx="0" cy="0" r="1" gradientUnits="userSpaceOnUse" gradientTransform="translate(1170 650) rotate(90) scale(120)">
      <stop offset="0%" stop-color="#FFF7ED"/>
      <stop offset="0.3" stop-color="#FCD34D"/>
      <stop offset="0.65" stop-color="#FB923C" stop-opacity="0.85"/>
      <stop offset="1" stop-color="#FB923C" stop-opacity="0"/>
    </radialGradient>
    <filter id="blur" x="-20%" y="-20%" width="140%" height="140%">
      <feGaussianBlur stdDeviation="30"/>
    </filter>
  </defs>

  <rect width="1600" height="1100" fill="url(#bg)"/>
  <rect width="1600" height="1100" fill="url(#smoke)"/>

  <g opacity="0.18">
    <ellipse cx="420" cy="620" rx="280" ry="220" fill="#0F172A"/>
    <ellipse cx="540" cy="540" rx="250" ry="190" fill="#111827"/>
  </g>

  <g opacity="0.86">
    <ellipse cx="770" cy="575" rx="180" ry="150" fill="url(#lathe)"/>
    <ellipse cx="880" cy="585" rx="145" ry="130" fill="url(#steel)"/>
    <circle cx="885" cy="585" r="88" fill="#111827"/>
    <circle cx="885" cy="585" r="68" fill="url(#steel)"/>
    <circle cx="885" cy="585" r="10" fill="#111827"/>
    <rect x="610" y="520" width="245" height="115" rx="54" fill="url(#lathe)"/>
  </g>

  <g opacity="0.95">
    <rect x="980" y="0" width="250" height="370" rx="28" fill="url(#steel)"/>
    <rect x="1015" y="250" width="180" height="110" rx="22" fill="#0F172A" fill-opacity="0.72"/>
    <rect x="1038" y="355" width="132" height="90" rx="18" fill="url(#steel)"/>
    <rect x="1062" y="435" width="84" height="98" rx="14" fill="url(#steel)"/>
    <rect x="1086" y="528" width="36" height="158" rx="16" fill="url(#steel)"/>
  </g>

  <g opacity="0.92">
    <rect x="1085" y="655" width="180" height="54" rx="14" fill="#4B5563"/>
    <rect x="1055" y="705" width="250" height="90" rx="16" fill="#374151"/>
    <rect x="1025" y="790" width="320" height="120" rx="18" fill="#1F2937"/>
    <rect x="980" y="902" width="390" height="120" rx="18" fill="#111827"/>
  </g>

  <g opacity="0.94">
    <rect x="948" y="610" width="245" height="42" rx="18" fill="url(#steel)"/>
    <rect x="875" y="622" width="165" height="22" rx="10" fill="#0F172A"/>
    <rect x="760" y="617" width="145" height="32" rx="16" fill="url(#steel)"/>
    <rect x="695" y="622" width="95" height="22" rx="10" fill="#111827"/>
  </g>

  <circle cx="1170" cy="650" r="120" fill="url(#sparkGlow)"/>
  <circle cx="1170" cy="650" r="18" fill="#FFF7ED"/>

  <g stroke="#FB923C" stroke-linecap="round" opacity="0.95">
    <path d="M1170 650L1088 630" stroke-width="3"/>
    <path d="M1170 650L1078 672" stroke-width="2.6"/>
    <path d="M1170 650L1110 715" stroke-width="2.4"/>
    <path d="M1170 650L1186 734" stroke-width="2.2"/>
    <path d="M1170 650L1248 706" stroke-width="2.8"/>
    <path d="M1170 650L1268 668" stroke-width="2.2"/>
    <path d="M1170 650L1240 594" stroke-width="2.4"/>
    <path d="M1170 650L1188 568" stroke-width="2.3"/>
    <path d="M1170 650L1112 585" stroke-width="2.1"/>
  </g>

  <g fill="#FB923C" fill-opacity="0.9">
    <circle cx="1032" cy="406" r="2"/>
    <circle cx="982" cy="714" r="2.2"/>
    <circle cx="1108" cy="330" r="1.8"/>
    <circle cx="1188" cy="482" r="2.2"/>
    <circle cx="1210" cy="572" r="1.8"/>
    <circle cx="1280" cy="625" r="2.1"/>
    <circle cx="1305" cy="690" r="2"/>
    <circle cx="1168" cy="744" r="1.8"/>
    <circle cx="1080" cy="726" r="2"/>
    <circle cx="960" cy="645" r="1.8"/>
    <circle cx="860" cy="186" r="1.4"/>
    <circle cx="720" cy="248" r="1.6"/>
    <circle cx="640" cy="135" r="1.2"/>
    <circle cx="934" cy="268" r="1.5"/>
    <circle cx="1018" cy="220" r="1.3"/>
  </g>

  <g opacity="0.13" stroke="#CBD5E1">
    <path d="M0 960H1600"/>
    <path d="M0 820H1600"/>
  </g>

  <ellipse cx="1150" cy="965" rx="280" ry="50" fill="#020617" fill-opacity="0.65" filter="url(#blur)"/>
</svg>
