<svg width="5090" height="1531" viewBox="0 0 5090 1531" fill="none" xmlns="http://www.w3.org/2000/svg">
<path d="M1143.55 460.08L1143.23 459.9L1129.18 483.71L882.44 338.11C847.69 345.56 654.65 388.56 583.1 438.77C552.82 460.02 513.87 489.43 481.09 528.58C442.38 574.82 419.9 625.82 414.28 680.15C406.78 752.65 412.09 823.45 429.65 884.89C451.17 960.22 490.53 1021.41 546.64 1066.77C672.17 1168.27 1044 1402.05 1047.74 1404.39L1044.71 1430.18L887.27 1483.49C887.38 1483.57 887.45 1483.63 887.45 1483.63L747.58 1530.07L717.4 1475.51L612.93 1448.81L575.67 1512.66L442.29 1468.55L455.06 1369.88L333.17 1278.17L232.18 1318.8L148.6 1200.4L228.7 1123.79L148.6 969.4L37.16 972.88L0 845.19L105.64 810.37L99.84 651.34L9.3 615.35L37.16 493.46L138.15 499.64L219.41 361.12L164.85 281.7L261.2 200.93L333.17 248.52L455.06 185.84L445.19 109.22L558.37 82.52L593.19 154.49L717.04 145.04V63.68L745.95 46.54L744.04 168.87L743.81 169.52L742.02 244.6C742.02 244.6 435.35 271.67 292.53 523.65C143.81 786.06 344.44 1082.01 344.44 1082.01C344.44 1082.01 451.56 1241.04 600.15 1306.05C708.85 1353.61 812.25 1426.62 859.94 1462.4L1006.94 1412.63C920.15 1357.61 636 1176 528.56 1089.14C467.76 1039.98 425.18 973.92 402 892.79C383.45 827.86 377.8 753.31 385.68 677.2C391.9 617.06 416.59 560.85 459.05 510.13C493.98 468.41 534.87 437.51 566.59 415.25C623.9 375.04 747.31 340.67 821.75 322.53L825.5 0L899.87 44.1L897.29 313.49L986.47 366.11V94.78L1035.43 123.81V395.01L1116.53 442.87L1112.42 169.47L1136.45 183.72L1143.49 458.78L1143.77 458.95L1143.5 459.4L1143.52 460.09L1143.55 460.08ZM1108.12 511.68L1115.04 525.78L1103.14 631.3L1095.32 642.63L1078.15 651.47L1069.83 741.94L1060.52 754.22L1045.41 760.01V807.79L1036.17 821.36L1013.66 830.22V932.79L1000.83 947.27L986.75 948.97L975.64 1074.7L959.62 1087.92L941.65 1086.07L892.57 1270.91L865.01 1272.77L787.42 1086.43H773.3L758.98 1074.61L734.55 948.12L715.11 943.91L703.78 931.87L687.46 825.49H683.28L668.85 813.01L661 759.16L638.86 751.19L629.4 739.77L613.14 637.99H601.29L586.87 625.56L570.32 514.84L579.09 499.24L872.84 375.68L886.07 376.66L1108.15 511.67L1108.12 511.68ZM613.84 608.83H622.77L873.07 509.06L885.09 509.61L1076.52 607.11L1085.02 531.76L877.27 405.46L600.84 521.74L613.86 608.83H613.84ZM745.62 920.7L872.81 867.14L884.27 867.2L984.49 910.6V829.84L872.45 780.85L718.34 834.52L731.08 917.55L745.62 920.7ZM958.73 934.65L961.06 932.24L878.39 896.44L763.6 944.78L784.21 1051.52L867.44 1016.82L879.47 1017.18L948.45 1050.99L958.73 934.65ZM916.34 1067.74L872.57 1046.29L812.68 1071.26L875.41 1221.91L916.34 1067.75V1067.74ZM1016.24 797.87V763.45L877.32 684.53L690.26 757.79L695.88 796.35H699.97L711.32 806.09L868.26 751.43L878.9 751.84L999.37 804.52L1016.24 797.88V797.87ZM1049.84 640.83L1057.16 629.99L877.75 538.6L641.83 632.64L656.85 726.68L673.96 732.84L873.17 654.82L885.69 655.72L1026.83 735.9L1041.63 730.23L1049.85 640.83H1049.84Z" fill="white"/>
<path d="M1705.77 728.34H1574.48L1462.14 865.31H1378.58V728.34H1259.18V1116H1378.58V971.79H1459.88L1569.83 1116H1711.45L1549.67 911.32L1705.77 728.34Z" fill="white"/>
<path d="M2137.36 953.7C2127.71 938.89 2113.07 927.26 2093.43 918.81C2086.53 915.85 2079.02 913.37 2070.93 911.36C2073.45 910.12 2075.87 908.81 2078.18 907.44C2095.24 897.28 2107.46 884.79 2114.88 869.97C2122.29 855.16 2125.99 839.47 2125.99 822.93C2125.99 793.3 2115.91 770.13 2095.75 753.41C2075.59 736.7 2047.59 728.34 2011.76 728.34H1727.48V1116H2022.62C2051.22 1116 2075.16 1111.27 2094.47 1101.79C2113.76 1092.32 2128.15 1079.22 2137.63 1062.51C2147.1 1045.8 2151.84 1026.93 2151.84 1005.91C2151.84 984.89 2147.01 968.53 2137.37 953.7H2137.36ZM1994.44 819.05C2000.81 825.08 2004 832.58 2004 841.53C2004 852.21 2000.38 860.83 1993.15 867.37C1985.91 873.92 1976.95 877.19 1966.27 877.19H1845.32V810H1967.3C1979.01 810 1988.06 813.02 1994.44 819.05ZM2018.48 1024.25C2010.9 1030.97 2000.39 1034.33 1986.95 1034.33H1845.32V956.8H1983.33C1998.49 956.8 2010.03 960.51 2017.96 967.91C2025.88 975.32 2029.85 984.71 2029.85 996.08C2029.85 1008.15 2026.05 1017.53 2018.48 1024.25Z" fill="white"/>
<path d="M2320.85 728.34L2147.69 1116H2275.88L2305.23 1046.22H2495.77L2525.02 1116H2653.72L2480.05 728.34H2320.85ZM2345.67 950.08L2400.67 819.32L2455.47 950.08H2345.66H2345.67Z" fill="white"/>
<path d="M2995.63 745.4C2971.34 734.03 2942.3 728.34 2908.54 728.34H2686.8V1116H2807.23V1003.32H2908.54C2942.31 1003.32 2971.34 997.63 2995.63 986.26C3019.92 974.89 3038.44 958.87 3051.19 938.19C3063.93 917.52 3070.31 893.4 3070.31 865.83C3070.31 838.26 3063.93 813.71 3051.19 793.21C3038.44 772.71 3019.92 756.77 2995.63 745.4ZM2936.19 896.85C2927.74 904.43 2915.94 908.22 2900.78 908.22H2807.23V823.45H2900.78C2915.94 823.45 2927.74 827.07 2936.19 834.3C2944.63 841.54 2948.85 852.05 2948.85 865.83C2948.85 879.61 2944.63 889.27 2936.19 896.84V896.85Z" fill="white"/>
<path d="M3529.31 728.34H3408.88V1009.52H3233.66V728.34H3113.22V1116H3483.31V1193.53H3595.99V1009.52H3529.31V728.34Z" fill="white"/>
<path d="M3936.26 996.44L3830.65 728.34H3645.09V1116H3759.32V833.84L3876.14 1116H3996.05L4112.35 833.2V1116H4227.1V728.34H4041.02L3936.26 996.44Z" fill="white"/>
<path d="M4402.32 964.56H4632.33V879.79H4402.32V824.48H4647.83V728.34H4282.92V922.17V1116H4650.42V1019.86H4402.32V964.56Z" fill="white"/>
<path d="M5089.77 728.34H4681.95V835.34H4825.65V1116H4946.08V835.34H5089.77V728.34Z" fill="white"/>
</svg>
