<svg width="640" height="520" viewBox="0 0 640 520" fill="none" xmlns="http://www.w3.org/2000/svg">
  <defs>
    <linearGradient id="bg" x1="0" y1="0" x2="1" y2="1">
      <stop offset="0%" stop-color="#09111C"/>
      <stop offset="100%" stop-color="#182538"/>
    </linearGradient>
    <radialGradient id="spark" cx="0" cy="0" r="1" gradientUnits="userSpaceOnUse" gradientTransform="translate(320 286) rotate(90) scale(72)">
      <stop offset="0%" stop-color="#FDE68A"/>
      <stop offset="50%" stop-color="#F59E0B"/>
      <stop offset="100%" stop-color="#EA580C" stop-opacity="0"/>
    </radialGradient>
  </defs>
  <rect width="640" height="520" fill="url(#bg)"/>
  <rect x="72" y="106" width="230" height="250" rx="18" fill="#111827" fill-opacity="0.9"/>
  <rect x="338" y="82" width="216" height="176" rx="16" fill="#111827" fill-opacity="0.85"/>
  <rect x="250" y="228" width="182" height="28" rx="14" transform="rotate(-28 250 228)" fill="#EF4444" fill-opacity="0.6"/>
  <circle cx="320" cy="286" r="72" fill="url(#spark)"/>
  <g stroke="#F59E0B" stroke-width="4" stroke-linecap="round">
    <path d="M320 214V124"/>
    <path d="M320 358v74"/>
    <path d="M248 286H162"/>
    <path d="M392 286h86"/>
    <path d="m269 236-58-58"/>
    <path d="m371 338 58 58"/>
    <path d="m371 236 58-58"/>
    <path d="m269 338-58 58"/>
  </g>
</svg>
