<svg width="640" height="520" viewBox="0 0 640 520" fill="none" xmlns="http://www.w3.org/2000/svg">
  <defs>
    <linearGradient id="bg" x1="0" y1="0" x2="1" y2="1">
      <stop offset="0%" stop-color="#16181D"/>
      <stop offset="100%" stop-color="#242B38"/>
    </linearGradient>
    <linearGradient id="metal" x1="0" y1="0" x2="1" y2="1">
      <stop offset="0%" stop-color="#F8FAFC"/>
      <stop offset="50%" stop-color="#9CA3AF"/>
      <stop offset="100%" stop-color="#D1D5DB"/>
    </linearGradient>
  </defs>
  <rect width="640" height="520" fill="url(#bg)"/>
  <g fill="url(#metal)">
    <circle cx="145" cy="330" r="52"/>
    <circle cx="250" cy="340" r="62"/>
    <circle cx="368" cy="320" r="48"/>
    <circle cx="496" cy="330" r="56"/>
    <circle cx="210" cy="228" r="34"/>
    <circle cx="310" cy="204" r="44"/>
    <circle cx="420" cy="212" r="36"/>
    <circle cx="530" cy="222" r="40"/>
    <circle cx="118" cy="210" r="28"/>
  </g>
  <g fill="#1F2937">
    <circle cx="145" cy="330" r="22"/>
    <circle cx="250" cy="340" r="24"/>
    <circle cx="368" cy="320" r="18"/>
    <circle cx="496" cy="330" r="24"/>
    <circle cx="210" cy="228" r="10"/>
    <circle cx="310" cy="204" r="14"/>
    <circle cx="420" cy="212" r="12"/>
    <circle cx="530" cy="222" r="12"/>
    <circle cx="118" cy="210" r="8"/>
  </g>
</svg>
